# AST/ASF file generated using VICON BodyLanguage
# -----------------------------------------------
:version 1.10
:name VICON
:units
  mass 1.0
  length 0.45
  angle deg
:documentation
   .ast/.asf automatically generated from VICON data using
   VICON BodyBuilder and BodyLanguage model FoxedUp or BRILLIANT.MOD
:root
   order TX TY TZ RX RY RZ
   axis XYZ
   position 0 0 0  
   orientation 0 0 0 
:bonedata
  begin
     id 1 
     name lhipjoint
     direction 0.575328 -0.747301 0.332475 
     length 2.40933 
     axis 0 0 0  XYZ
  end
  begin
     id 2 
     name lfemur
     direction 0.34202 -0.939693 0  
     length 7.31453  
     axis 0 0 20  XYZ
    dof rx ry rz
    limits (-160.0 20.0)
           (-70.0 70.0)
           (-60.0 70.0)
  end
  begin
     id 3 
     name ltibia
     direction 0.34202 -0.939693 0   
     length 7.82185   
     axis 0 0 20   XYZ
    dof rx
    limits (-10.0 170.0)
  end
  begin
     id 4 
     name lfoot
     direction 0.0795993 -0.218697 0.972541   
     length 2.19173   
     axis -90 7.62852e-016 20   XYZ
    dof rx rz
    limits (-45.0 90.0)
           (-70.0 20.0)
  end
  begin
     id 5 
     name ltoes
     direction 1.53537e-011 -4.21894e-011 1   
     length 1.10023   
     axis -90 7.62852e-016 20   XYZ
    dof rx
    limits (-90.0 20.0)
  end
  begin
     id 6 
     name rhipjoint
     direction -0.513884 -0.783789 0.348708   
     length 2.29716  
     axis 0 0 0  XYZ 
  end
  begin
     id 7 
     name rfemur
     direction -0.34202 -0.939693 0   
     length 7.59573   
     axis 0 0 -20   XYZ
    dof rx ry rz
    limits (-160.0 20.0)
           (-70.0 70.0)
           (-70.0 60.0)
  end
  begin
     id 8 
     name rtibia
     direction -0.34202 -0.939693 0   
     length 7.66402   
     axis 0 0 -20   XYZ
    dof rx
    limits (-10.0 170.0)
 end
 begin
     id 9 
     name rfoot
     direction -0.137793 -0.378584 0.915253   
     length 2.27056  
     axis -90 -7.62852e-016 -20   XYZ
    dof rx rz
    limits (-45.0 90.0)
           (-20.0 70.0)
  end
  begin
     id 10 
     name rtoes
     direction -1.53493e-011 -4.22159e-011 1   
     length 1.11766   
     axis -90 -7.62852e-016 -20   XYZ
    dof rx
    limits (-90.0 20.0)
  end
  begin
     id 11 
     name lowerback
     direction -0.00732775 0.998356 -0.05685   
     length 2.16513   
     axis 0 0 0   XYZ
    dof rx ry rz
    limits (-20.0 45.0)
           (-30.0 30.0)
           (-30.0 30.0)
  end
  begin
     id 12 
     name upperback
     direction 0.0218081 0.999627 -0.0164647   
     length 2.16755   
     axis 0 0 0   XYZ
    dof rx ry rz
    limits (-20.0 45.0)
           (-30.0 30.0)
           (-30.0 30.0)
  end
  begin
     id 13 
     name thorax
     direction 0.02365 0.999661 0.0108914   
     length 2.16932   
     axis 0 0 0   XYZ
    dof rx ry rz
    limits (-20.0 45.0)
           (-30.0 30.0)
           (-30.0 30.0)
  end
  begin
     id 14 
     name lowerneck
     direction -0.0523929 0.978385 0.200044   
     length 1.63877   
     axis 0 0 0   XYZ
    dof rx ry rz
    limits (-20.0 45.0)
           (-30.0 30.0)
           (-30.0 30.0)
  end
  begin
     id 15 
     name upperneck
     direction 0.0448674 0.981321 -0.187074   
     length 1.69014   
     axis 0 0 0   XYZ
    dof rx ry rz
    limits (-20.0 45.0)
           (-30.0 30.0)
           (-30.0 30.0)
  end
  begin
     id 16
     name head
     direction 0.0199089 0.996118 -0.0857429  
     length 1.70094  
     axis 0 0 0   XYZ
    dof rx ry rz
    limits (-20.0 45.0)
           (-30.0 30.0)
           (-30.0 30.0)
  end
  begin
     id 17 
     name lclavicle
     direction 0.940366 0.30191 -0.156722  
     length 3.37521  
     axis 0 0 0   XYZ
    dof ry rz
    limits (-20.0 10.0)
           (0.0 20.0)
  end
  begin
     id 18 
     name lhumerus
     direction 1 -4.4897e-011 -1.7911e-027   
     length 5.25287   
     axis 180 -30 -90   XYZ
    dof rx ry rz
    limits (-60.0 90.0)
           (-90.0 90.0)
           (-90.0 90.0)
  end
  begin
     id 19
     name lradius
     direction 1 -4.48951e-011 1.04424e-027   
     length 3.51014   
     axis 180 -30 -90   XYZ
    dof rx
    limits (-10.0 170.0)
  end
  begin
     id 20
     name lwrist
     direction 1 -4.48997e-011 -9.5942e-028   
     length 1.75507   
     axis 8.48502e-016 90 90   XYZ
    dof ry
    limits (-180.0 0.0)
 end
  begin
     id 21 
     name lhand
     direction 1 -4.48831e-011 -1.90777e-027   
     length 0.706179   
     axis 1.22306e-015 90 90   XYZ
    dof rx rz
    limits (-90.0 90.0)
           (-45.0 45.0)
  end
  begin
     id 22 
     name lfingers
     direction 1 -4.49108e-011 -3.85244e-027   
     length 0.569339   
     axis 2.44611e-015 90 90   XYZ
    dof rx
    limits (0.0 90.0)
  end
  begin
     id 23
     name lthumb
     direction 0.707107 -6.34953e-011 0.707107   
     length 0.817461   
     axis -90 45 -1.62303e-014   XYZ
    dof rx rz
    limits (-45.0 45.0)
           (-45.0 45.0)
  end
  begin
     id 24 
     name rclavicle
     direction -0.905329 0.382405 -0.184787   
     length 3.30787  
     axis 0 0 0   XYZ 
    dof ry rz
    limits (-10.0 20.0)
           (-20.0 0.0)
  end
  begin
     id 25 
     name rhumerus
     direction -1 -4.48953e-011 -9.15316e-029  
     length 5.28721   
     axis 180 30 90   XYZ
    dof rx ry rz
    limits (-90.0 60.0)
           (-90.0 90.0)
           (-90.0 90.0)
  end
  begin
     id 26 
     name rradius
     direction -1 -4.48987e-011 9.37824e-028   
     length 3.50544   
     axis 180 30 90   XYZ
    dof rx
    limits (-10.0 170.0)
  end
  begin
     id 27 
     name rwrist
     direction -1 -4.48967e-011 -9.58414e-028   
     length 1.75272   
     axis 8.48502e-016 -90 -90   XYZ
    dof ry
    limits (-180.0 0.0)
  end
  begin
     id 28
     name rhand
     direction -1 -4.48904e-011 -1.91266e-027   
     length 0.884996   
     axis 1.22306e-015 -90 -90   XYZ
    dof rx rz
    limits (-90.0 90.0)
           (-45.0 45.0)
  end
  begin
     id 29
     name rfingers
     direction -1 -4.4909e-011 -3.85015e-027   
     length 0.713507   
     axis 2.44611e-015 -90 -90   XYZ
    dof rx
    limits (0.0 90.0)
  end
  begin
     id 30
     name rthumb
     direction -0.707107 -6.34853e-011 0.707107   
     length 1.02446   
     axis -90 -45 1.62303e-014   XYZ
    dof rx rz
    limits (-45.0 45.0)
           (-45.0 45.0)
  end
:hierarchy
  begin
    root lhipjoint rhipjoint lowerback
    lhipjoint lfemur
    lfemur ltibia
    ltibia lfoot
    lfoot ltoes
    rhipjoint rfemur
    rfemur rtibia
    rtibia rfoot
    rfoot rtoes
    lowerback upperback
    upperback thorax
    thorax lowerneck lclavicle rclavicle
    lowerneck upperneck
    upperneck head
    lclavicle lhumerus
    lhumerus lradius
    lradius lwrist
    lwrist lhand lthumb
    lhand lfingers
    rclavicle rhumerus
    rhumerus rradius
    rradius rwrist
    rwrist rhand rthumb
    rhand rfingers
  end

#!OML:ASF F:\twosubjects\two\Thursday\Session 1\justin.ASF
:FULLY-SPECIFIED
:DEGREES
51
root 19.1689 18.5052 2.7639 6.95666 -77.7216 5.88284
lowerback 6.51074 -0.154959 0.503084
upperback 2.85094 -0.21991 2.76416
thorax -0.70295 -0.154561 2.57856
lowerneck -14.2205 -2.77153 -9.9521
upperneck 38.0573 -6.70021 10.14
head 16.8866 -3.31351 4.99914
rclavicle -1.98785e-015 -8.74653e-015
rhumerus 36.4639 33.2261 -44.5498
rradius 58.6099
rwrist -6.13836
rhand -27.1021 25.82
rfingers 7.12502
rthumb -0.518685 -4.15914
lclavicle -1.98785e-015 -8.74653e-015
lhumerus 38.9753 -31.9019 54.5839
lradius 45.086
lwrist -4.76619
lhand -30.32 34.4227
lfingers 7.12502
lthumb -3.6265 64.3716
rfemur -21.2262 -2.09451 24.8851
rtibia 28.0601
rfoot -18.0926 -14.7931
rtoes -3.57027
lfemur -13.3634 -0.773894 -14.5701
ltibia 9.91283
lfoot -7.4051 -7.36691
ltoes -11.3534
52
root 19.1819 18.5031 2.76184 8.09761 -77.6006 4.78353
lowerback 6.50842 -0.222035 0.827938
upperback 2.86619 -0.292552 2.89849
thorax -0.683536 -0.191024 2.53948
lowerneck -14.2375 -2.76272 -9.87193
upperneck 38.1482 -6.63643 9.91809
head 16.9141 -3.30469 4.89754
rclavicle 1.59028e-015 -2.22639e-014
rhumerus 36.8276 33.0733 -44.4584
rradius 58.1876
rwrist -6.04738
rhand -27.2055 25.9564
rfingers 7.12502
rthumb -0.618607 -4.02243
lclavicle 1.59028e-015 -2.22639e-014
lhumerus 38.9763 -31.9102 54.4763
lradius 45.1612
lwrist -4.93779
lhand -30.9565 34.7664
lfingers 7.12502
lthumb -4.24116 64.7039
rfemur -21.2882 -2.35164 25.2294
rtibia 27.9442
rfoot -17.7267 -14.8306
rtoes -4.37136
lfemur -13.7446 -0.664943 -14.3483
ltibia 10.3033
lfoot -7.04086 -7.33894
ltoes -7.80257
53
root 19.1935 18.503 2.76301 8.02897 -77.4235 4.89397
lowerback 6.48915 -0.304188 0.887707
upperback 2.88926 -0.400612 2.99857
thorax -0.644407 -0.246343 2.61658
lowerneck -14.1142 -2.76571 -9.87185
upperneck 38.1242 -6.59911 9.7857
head 16.856 -3.30792 4.84081
rclavicle -7.15625e-015 -7.95139e-015
rhumerus 37.3266 32.9707 -44.2759
rradius 57.5974
rwrist -6.03515
rhand -27.5454 26.2671
rfingers 7.12502
rthumb -0.946867 -3.71054
lclavicle -7.15625e-015 -7.95139e-015
lhumerus 38.9054 -31.9282 54.4325
lradius 45.2659
lwrist -5.13893
lhand -31.8553 35.5302
lfingers 7.12502
lthumb -5.10902 65.4486
rfemur -21.3348 -2.77217 25.2711
rtibia 27.8438
rfoot -17.3698 -14.7491
rtoes -5.10204
lfemur -14.0476 -0.95757 -14.295
ltibia 10.7271
lfoot -7.01054 -7.29729
ltoes -5.37788
54
root 19.2037 18.5091 2.76316 6.70446 -77.2032 6.28645
lowerback 6.40716 -0.234488 0.843993
upperback 2.95021 -0.314455 2.88959
thorax -0.540091 -0.202935 2.52148
lowerneck -13.9744 -2.89978 -9.81576
upperneck 38.071 -6.87203 9.87745
head 16.8386 -3.4015 4.82042
rclavicle 9.93923e-015 -2.38542e-015
rhumerus 37.2066 32.4974 -44.2535
rradius 57.3013
rwrist -6.04299
rhand -28.0528 26.6146
rfingers 7.12502
rthumb -1.43692 -3.3603
lclavicle 9.93923e-015 -2.38542e-015
lhumerus 39.382 -32.3721 54.0444
lradius 45.3688
lwrist -5.18491
lhand -32.505 36.0658
lfingers 7.12502
lthumb -5.73633 65.9681
rfemur -21.4184 -2.91774 24.9179
rtibia 27.8484
rfoot -17.4724 -14.7148
rtoes -4.97879
lfemur -14.2234 -1.19463 -14.5707
ltibia 10.8996
lfoot -7.33151 -7.47235
ltoes -6.61291
55
root 19.2166 18.5093 2.76252 6.45579 -76.9827 6.54568
lowerback 6.3761 -0.159175 1.13862
upperback 3.02816 -0.203077 2.8274
thorax -0.447943 -0.145442 2.28335
lowerneck -13.8938 -3.06346 -9.86163
upperneck 38.0556 -7.15492 9.96941
head 16.8643 -3.51295 4.81968
rclavicle 3.97569e-015 2.8625e-014
rhumerus 36.9234 32.0059 -44.1272
rradius 57.3141
rwrist -5.97183
rhand -28.2429 26.9317
rfingers 7.12502
rthumb -1.62048 -3.04193
lclavicle 3.97569e-015 2.8625e-014
lhumerus 39.8389 -32.8095 53.6705
lradius 45.5883
lwrist -5.21363
lhand -32.7494 36.2155
lfingers 7.12502
lthumb -5.97223 66.1113
rfemur -21.5176 -3.04608 24.8757
rtibia 27.9384
rfoot -17.5601 -14.8844
rtoes -5.58897
lfemur -14.3304 -0.6691 -14.8218
ltibia 10.768
lfoot -7.26754 -7.90099
ltoes -8.67548
56
root 19.231 18.5109 2.76267 6.38113 -76.8363 6.56516
lowerback 6.47815 -0.190084 1.20824
upperback 3.09783 -0.243178 2.98584
thorax -0.430708 -0.168431 2.41117
lowerneck -13.894 -3.07106 -10.0048
upperneck 38.19 -7.10265 9.86608
head 16.9304 -3.52788 4.81601
rclavicle -1.31198e-014 -1.43125e-014
rhumerus 37.1096 31.9309 -43.5758
rradius 57.4666
rwrist -6.05864
rhand -28.208 27.114
rfingers 7.12502
rthumb -1.58681 -2.85986
lclavicle -1.31198e-014 -1.43125e-014
lhumerus 39.708 -32.8408 53.8553
lradius 45.932
lwrist -5.32773
lhand -32.7004 36.6125
lfingers 7.12502
lthumb -5.92498 66.5096
rfemur -21.5671 -2.85687 24.839
rtibia 28.0582
rfoot -17.543 -15.2581
rtoes -6.03279
lfemur -14.3258 -0.157526 -15.0062
ltibia 10.5446
lfoot -7.01852 -8.31635
ltoes -10.1816
57
root 19.2461 18.519 2.7666 5.84762 -76.7564 7.05003
lowerback 6.69245 -0.326497 1.02933
upperback 3.11627 -0.431373 3.1582
thorax -0.521331 -0.266977 2.70518
lowerneck -13.8825 -2.91869 -9.96102
upperneck 38.4032 -6.81884 9.60363
head 16.9797 -3.44588 4.74945
rclavicle -1.27222e-014 -2.22639e-014
rhumerus 37.5299 32.2835 -42.9822
rradius 57.7962
rwrist -6.28897
rhand -28.3892 26.8362
rfingers 7.12502
rthumb -1.76176 -3.13629
lclavicle -1.27222e-014 -2.22639e-014
lhumerus 39.1329 -32.6021 54.2073
lradius 46.3354
lwrist -5.39807
lhand -32.7265 36.9795
lfingers 7.12502
lthumb -5.95019 66.8759
rfemur -21.6023 -2.66064 24.6369
rtibia 28.1749
rfoot -17.7306 -15.3703
rtoes -5.3006
lfemur -14.1639 -0.345319 -15.0776
ltibia 10.2837
lfoot -7.09214 -8.52265
ltoes -11.1246
58
root 19.2621 18.5219 2.76873 5.43247 -76.6597 7.46362
lowerback 6.88895 -0.458592 0.840619
upperback 3.09491 -0.612737 3.30016
thorax -0.641274 -0.360767 2.97433
lowerneck -13.7288 -2.803 -9.80646
upperneck 38.4954 -6.59207 9.26508
head 16.9275 -3.38082 4.60884
rclavicle -1.86858e-014 3.65764e-014
rhumerus 37.7645 32.6315 -42.4754
rradius 58.2072
rwrist -6.49501
rhand -28.697 26.4977
rfingers 7.12502
rthumb -2.05903 -3.47211
lclavicle -1.86858e-014 3.65764e-014
lhumerus 38.4989 -32.3799 54.5994
lradius 46.6621
lwrist -5.52245
lhand -33.1109 37.0514
lfingers 7.12502
lthumb -6.32132 66.937
rfemur -21.6656 -2.74707 24.4948
rtibia 28.2044
rfoot -17.8358 -15.3163
rtoes -3.69779
lfemur -14.1045 -0.658906 -15.1032
ltibia 10.1367
lfoot -7.1604 -8.5733
ltoes -11.3719
59
root 19.2752 18.5153 2.76437 3.74065 -76.6265 9.17797
lowerback 6.97819 -0.531911 0.52061
upperback 3.13414 -0.728244 3.16589
thorax -0.643093 -0.41947 3.02504
lowerneck -13.605 -2.72785 -9.44361
upperneck 38.5453 -6.49965 8.96741
head 16.8752 -3.33286 4.4222
rclavicle 2.94201e-014 -5.24792e-014
rhumerus 37.8053 32.6614 -42.4563
rradius 58.4061
rwrist -6.57523
rhand -28.8484 26.6896
rfingers 7.12502
rthumb -2.20525 -3.27878
lclavicle 2.94201e-014 -5.24792e-014
lhumerus 38.1408 -32.4454 54.4864
lradius 47.1139
lwrist -5.62766
lhand -33.5735 37.923
lfingers 7.12502
lthumb -6.76785 67.7948
rfemur -21.6718 -2.78049 24.0927
rtibia 28.1775
rfoot -17.4556 -15.5648
rtoes -4.32971
lfemur -14.1232 -0.676038 -15.5425
ltibia 10.1222
lfoot -6.99804 -8.62979
ltoes -11.4773
60
root 19.287 18.5194 2.76178 2.1444 -76.6923 10.7536
lowerback 7.28249 -0.527565 -0.0178178
upperback 3.07672 -0.747951 3.27581
thorax -0.861182 -0.432549 3.45049
lowerneck -13.438 -2.69174 -9.45352
upperneck 38.6791 -6.38861 8.71554
head 16.876 -3.33052 4.33407
rclavicle 7.95139e-016 1.59028e-014
rhumerus 37.8758 32.8347 -42.1868
rradius 58.5822
rwrist -6.31554
rhand -28.8332 26.9926
rfingers 7.12502
rthumb -2.1906 -2.97585
lclavicle 7.95139e-016 1.59028e-014
lhumerus 37.5462 -32.5795 54.6954
lradius 47.7687
lwrist -5.79237
lhand -33.8301 39.0695
lfingers 7.12502
lthumb -7.01552 68.9333
rfemur -21.6172 -2.62835 23.7002
rtibia 28.1779
rfoot -17.2305 -15.7751
rtoes -5.44702
lfemur -13.9883 -0.928128 -15.8088
ltibia 10.0915
lfoot -6.74792 -8.48089
ltoes -8.47986
